<svg xmlns="http://www.w3.org/2000/svg" viewBox="0 0 512 512" xml:space="preserve" width="800px" height="800px" fill="#000000">
<g id="SVGRepo_bgCarrier" stroke-width="0"/>
<g id="SVGRepo_iconCarrier"> <path style="fill:#F85C67;" d="M501.93,184.713C471.057,78.018,372.645,0,256,0C114.616,0,0,114.615,0,256 c0,116.645,78.018,215.057,184.713,245.93L501.93,184.713z"/> <path style="fill:#c01c28;" d="M512,256c0-24.741-3.522-48.657-10.07-71.287l-62.278-62.278L72.348,389.565L184.713,501.93 C207.343,508.478,231.259,512,256,512C397.384,512,512,397.384,512,256z"/> <polygon style="fill:#FFFFFF;" points="339.478,122.435 72.348,122.435 72.348,389.565 339.478,389.565 395.13,256 "/> <polygon style="fill:#C3C9C8;" points="339.478,122.435 339.478,144.696 350.609,155.826 339.478,166.957 339.478,189.217 350.609,200.348 339.478,211.478 339.478,233.739 350.609,244.87 339.478,256 339.478,278.261 350.609,289.391 339.478,300.522 339.478,389.565 439.652,389.565 439.652,300.522 428.522,289.391 439.652,278.261 439.652,256 428.522,244.87 439.652,233.739 439.652,211.478 428.522,200.348 439.652,189.217 439.652,166.957 428.522,155.826 439.652,144.696 439.652,122.435 "/> <path style="fill:#B0B7B6;" d="M205.913,144.696L161.391,256l44.522,111.304c61.472,0,111.304-49.832,111.304-111.304 S267.385,144.696,205.913,144.696z"/> <path style="fill:#C3C9C8;" d="M94.609,256c0,61.472,49.832,111.304,111.304,111.304V144.696 C144.441,144.696,94.609,194.528,94.609,256z"/> <path style="fill:#889391;" d="M228.174,233.739v-31.683c0-17.851-14.466-32.317-32.317-32.317h-12.205v64h-31.683 c-17.851,0-32.317,14.466-32.317,32.317v12.205h64v31.683c0,17.851,14.466,32.317,32.317,32.317h12.205v-64h31.683 c17.851,0,32.317-14.466,32.317-32.317v-12.205H228.174z"/> <path style="fill:#394B48;" d="M205.913,217.043L190.33,256l15.583,38.957c21.515,0,38.957-17.441,38.957-38.957 S227.428,217.043,205.913,217.043z"/> <path style="fill:#616F6D;" d="M166.957,256c0,21.515,17.441,38.957,38.957,38.957v-77.913 C184.398,217.043,166.957,234.485,166.957,256z"/> <path style="fill:#C5C4C5;" d="M205.913,239.304L199.235,256l6.678,16.696c9.22,0,16.696-7.475,16.696-16.696 S215.133,239.304,205.913,239.304z"/> <path style="fill:#FFFFFF;" d="M189.217,256c0,9.22,7.475,16.696,16.696,16.696v-33.391C196.693,239.304,189.217,246.78,189.217,256 z"/> <g> <rect x="339.478" y="144.696" style="fill:#B0B7B6;" width="100.174" height="22.261"/> <rect x="339.478" y="189.217" style="fill:#B0B7B6;" width="100.174" height="22.261"/> <rect x="339.478" y="233.739" style="fill:#B0B7B6;" width="100.174" height="22.261"/> <rect x="339.478" y="278.261" style="fill:#B0B7B6;" width="100.174" height="22.261"/> </g> <rect x="361.739" y="322.783" style="fill:#889391;" width="55.652" height="44.522"/> </g>
</svg>