<svg xmlns="http://www.w3.org/2000/svg" viewBox="0 0 297 297" fill="#000000">
<g id="SVGRepo_bgCarrier" stroke-width="0"/>
<g id="SVGRepo_iconCarrier"> <g> <g> <g> <g> <circle style="fill:#f6d32d;" cx="148.5" cy="148.5" r="148.5"/> </g> </g> </g> <path style="fill:#e5a50a;" d="M296.822,141.258l-45.03-44.823c-26.228,6.416-56.278-0.205-78.292,16.066c-11,7-6,33-25,36 c-17,4-33,11-41,25c-3,5,4,14-4,20c-5.955,3.665-11.27,6.918-15.677,10.801l89.831,89.831C245.707,280.583,297,220.535,297,148.5 C297,146.071,296.937,143.658,296.822,141.258z"/> <g> <path style="fill:#32373B;" d="M231,148.5c0,45.563-36.937,82.5-82.5,82.5S66,194.063,66,148.5H231z"/> </g> <g> <rect x="61" y="101.5" style="fill:#26a269;" width="175" height="33"/> </g> <g> <path d="M235.773,148.977H61.227c-4.82,0-8.727-3.907-8.727-8.727l0,0c0-4.82,3.907-8.727,8.727-8.727h174.545 c4.82,0,8.727,3.907,8.727,8.727l0,0C244.5,145.07,240.593,148.977,235.773,148.977z"/> </g> <g> <circle style="fill:#D0D5D9;" cx="148.5" cy="181.5" r="16.5"/> </g> <g> <circle style="fill:#FFFFFF;" cx="148.5" cy="181.5" r="10.5"/> </g> <g> <path style="fill:#32373B;" d="M247.5,104h-198c-2.762,0-5-2.238-5-5s2.238-5,5-5h198c2.762,0,5,2.238,5,5S250.262,104,247.5,104z "/> </g> <g> <circle style="fill:#F86E51;" cx="148.5" cy="213" r="5"/> </g> </g> </g>

</svg>